<svg width="50" height="50" viewBox="0 0 50 50" fill="none" xmlns="http://www.w3.org/2000/svg">
<path d="M24.9996 4.6875C21.4893 4.68588 18.0385 5.594 14.9837 7.32329C11.9288 9.05259 9.37432 11.544 7.5692 14.5547C5.76408 17.5653 4.76998 20.9923 4.68385 24.5016C4.59772 28.0109 5.4225 31.4826 7.07775 34.5781L4.68712 43.3438C4.60809 43.6179 4.60562 43.9084 4.67999 44.1839C4.75436 44.4593 4.90273 44.7091 5.109 44.9062C5.26253 45.0464 5.4425 45.1546 5.63836 45.2243C5.83422 45.2941 6.04203 45.3241 6.24962 45.3125C6.38933 45.3352 6.53179 45.3352 6.6715 45.3125L15.9059 42.7344C16.3058 42.6246 16.6457 42.3604 16.8508 42C17.0559 41.6395 17.1094 41.2124 16.9996 40.8125C16.8898 40.4126 16.6256 40.0727 16.2652 39.8676C15.9048 39.6625 15.4776 39.6089 15.0777 39.7188L8.46837 41.5L10.2652 34.7813C10.3186 34.5828 10.3322 34.3757 10.3054 34.1719C10.2786 33.9682 10.2119 33.7717 10.109 33.5938C8.21735 30.3173 7.4596 26.5083 7.95326 22.7573C8.44692 19.0063 10.1644 15.5231 12.8394 12.8476C15.5144 10.1722 18.9974 8.45413 22.7482 7.95983C26.4991 7.46553 30.3083 8.22264 33.585 10.1137C36.8618 12.0048 39.423 14.9243 40.8716 18.4193C42.3201 21.9143 42.5751 25.7896 41.5968 29.4442C40.6185 33.0989 38.4618 36.3286 35.4609 38.6327C32.4601 40.9367 28.7829 42.1862 24.9996 42.1875C24.0365 42.1884 23.0749 42.11 22.1246 41.9531C21.7165 41.8853 21.2982 41.9821 20.9613 42.2223C20.6245 42.4625 20.3966 42.8264 20.3278 43.2344C20.2599 43.6425 20.3567 44.0608 20.5969 44.3977C20.8371 44.7345 21.2011 44.9624 21.609 45.0312C24.3791 45.4971 27.2157 45.3833 29.9396 44.6971C32.6634 44.0109 35.2154 42.7671 37.4342 41.0445C39.6529 39.3219 41.4903 37.1578 42.8302 34.689C44.1701 32.2201 44.9833 29.5002 45.2186 26.7011C45.4538 23.902 45.1059 21.0845 44.1969 18.4267C43.2879 15.7689 41.8375 13.3284 39.9374 11.2597C38.0373 9.19086 35.7287 7.53866 33.1576 6.40744C30.5864 5.27622 27.8086 4.69057 24.9996 4.6875Z" fill="#1E1E1E"/>
<path d="M23.4372 17.5156L21.6247 15.0156C21.3516 14.641 21.0008 14.3297 20.5963 14.1032C20.1918 13.8767 19.7431 13.7402 19.281 13.7031C18.8165 13.6689 18.3501 13.7349 17.9134 13.8967C17.4767 14.0584 17.0798 14.3121 16.7497 14.6406L14.8747 16.5156C14.4557 16.9435 14.1287 17.4525 13.9137 18.0114C13.6988 18.5703 13.6004 19.1673 13.6247 19.7656C13.6247 22.5312 15.7497 26.0156 19.8747 30.0781C24.7028 34.7656 28.0466 36.3281 30.3278 36.3281C30.9077 36.3434 31.4846 36.2388 32.0223 36.0211C32.5599 35.8033 33.0469 35.477 33.4528 35.0625L35.3278 33.1875C35.669 32.8675 35.9339 32.4749 36.1032 32.0389C36.2724 31.6028 36.3416 31.1343 36.3056 30.6679C36.2696 30.2015 36.1294 29.7492 35.8952 29.3442C35.6611 28.9392 35.3391 28.592 34.9528 28.3281L32.4997 26.5625C32.0913 26.2696 31.6208 26.0749 31.1249 25.9936C30.6289 25.9123 30.1209 25.9466 29.6403 26.0937L27.3122 26.8281C27.1668 26.8178 27.0266 26.7693 26.906 26.6875C25.5194 25.6921 24.2828 24.5029 23.2341 23.1562C23.2238 23.0994 23.2238 23.0412 23.2341 22.9844C23.4372 22.2969 23.781 21.1875 24.0153 20.4219C24.167 19.9274 24.1935 19.4031 24.0926 18.8959C23.9917 18.3886 23.7665 17.9144 23.4372 17.5156ZM25.4528 29.4375C26.2883 29.8954 27.27 30.0076 28.1872 29.75L30.5935 29.0312L33.1091 30.9844L31.2497 32.8125C30.4997 33.5469 27.7341 33.3281 22.0935 27.7969C17.406 23.25 16.7653 20.7656 16.7653 19.7031C16.7771 19.3427 16.9283 19.001 17.1872 18.75L19.1872 16.8906L21.031 19.4687C20.781 20.2344 20.4216 21.375 20.2341 22.0469C20.0115 22.7638 20.039 23.5351 20.3122 24.2344C21.6597 26.3167 23.433 28.09 25.5153 29.4375H25.4528Z" fill="#1E1E1E"/>
</svg>
