<svg width="65" height="65" viewBox="0 0 65 65" fill="none" xmlns="http://www.w3.org/2000/svg">
<path fill-rule="evenodd" clip-rule="evenodd" d="M32.5064 0C14.5644 0 0.0166016 14.5478 0.0166016 32.4939C0.0166016 46.8488 9.32378 59.0281 22.2385 63.3263C23.8635 63.6228 24.3753 62.66 24.3753 61.7987C24.3753 61.0269 24.3916 58.8697 24.3753 56.158C15.3383 58.1222 13.4655 51.8781 13.4655 51.8781C11.9888 48.1244 9.86003 47.125 9.86003 47.125C6.91066 45.11 10.0814 45.1486 10.0814 45.1486C13.3416 45.3781 15.06 48.4981 15.06 48.4981C17.9586 53.4605 22.663 52.0264 24.5135 51.1977C24.81 49.0973 25.651 47.6653 26.5792 46.8528C19.3642 46.0322 11.7796 43.2453 11.7796 30.7937C11.7796 27.2452 13.045 24.3466 15.123 22.0756C14.7878 21.255 13.6707 17.9502 15.4419 13.4753C15.4419 13.4753 18.1699 12.6019 24.3753 16.8086C26.9672 16.0875 29.748 15.728 32.5105 15.7158C35.2709 15.728 38.0497 16.0875 40.6456 16.8086C46.8511 12.6039 49.575 13.4753 49.575 13.4753C51.3462 17.9502 50.2311 21.255 49.898 22.0756C51.9759 24.3466 53.2373 27.2452 53.2373 30.7937C53.2373 43.2778 45.6405 46.0241 38.4011 46.8264C39.567 47.8319 40.6253 49.7819 40.6253 52.8125C40.6253 56.875 40.6253 60.7384 40.6253 61.8069C40.6253 62.6763 41.1494 63.637 42.7988 63.3222C55.7012 59.018 65.0003 46.8447 65.0003 32.4939C65.0003 14.5478 50.4525 0 32.5064 0Z" fill="#181616"/>
</svg>
