<svg width="50" height="50" viewBox="0 0 50 50" fill="none" xmlns="http://www.w3.org/2000/svg">
<path d="M46.2289 31.8749L40.208 25.8749C39.7422 25.4094 39.1727 25.061 38.5462 24.8582C37.9197 24.6554 37.2541 24.604 36.6039 24.7082C35.9859 24.8107 35.3989 25.0513 34.8867 25.412C34.3746 25.7727 33.9503 26.2442 33.6455 26.7915L32.3538 28.4582C32.2583 28.579 32.1385 28.6785 32.0021 28.7503C31.8658 28.8221 31.7159 28.8645 31.5622 28.8749C31.4122 28.8845 31.262 28.8615 31.1217 28.8076C30.9815 28.7536 30.8546 28.67 30.7497 28.5624L21.4997 19.2499C21.3937 19.1395 21.3113 19.0087 21.2575 18.8654C21.2038 18.7221 21.1799 18.5694 21.1872 18.4165C21.2004 18.2664 21.2441 18.1206 21.3158 17.988C21.3874 17.8554 21.4855 17.7389 21.6039 17.6457L23.2705 16.354C23.8178 16.0493 24.2894 15.625 24.6501 15.1128C25.0108 14.6006 25.2513 14.0137 25.3539 13.3957C25.4615 12.7422 25.4118 12.0725 25.2089 11.4421C25.006 10.8117 24.6557 10.2387 24.1872 9.77069L18.1247 3.77069C17.0208 2.71987 15.555 2.13379 14.0309 2.13379C12.5068 2.13379 11.0411 2.71987 9.93719 3.77069L3.45802 10.2707C1.64552 12.0624 1.62469 15.1249 3.45802 19.3957C4.54496 22.1444 6.10304 24.6824 8.06219 26.8957L23.1872 42.0207C25.4004 43.9798 27.9385 45.5379 30.6872 46.6249C32.3958 47.3911 34.2333 47.8293 36.1039 47.9165C36.7832 47.954 37.4631 47.8513 38.101 47.6148C38.739 47.3782 39.3215 47.0129 39.8122 46.5415L46.3122 40.0624C47.3813 38.9627 47.9725 37.4851 47.9568 35.9515C47.9412 34.4178 47.3201 32.9525 46.2289 31.8749ZM43.208 37.0415L36.708 43.5207C35.4789 44.4165 28.6247 41.4374 26.1247 38.9999L10.9997 23.8749C8.49969 21.354 5.58302 14.5832 6.47885 13.2915L12.958 6.79153C13.2423 6.53094 13.614 6.38638 13.9997 6.38638C14.3854 6.38638 14.757 6.53094 15.0414 6.79153L21.0414 12.6874L18.958 14.2707C18.3584 14.739 17.8634 15.3275 17.5046 15.9984C17.1458 16.6693 16.9313 17.4078 16.8747 18.1665C16.8239 18.9322 16.937 19.6999 17.2064 20.4184C17.4758 21.1369 17.8954 21.7897 18.4372 22.3332L27.6872 31.5832C28.2274 32.1294 28.8797 32.552 29.599 32.8217C30.3184 33.0915 31.0877 33.202 31.8538 33.1457C32.6126 33.0891 33.3511 32.8746 34.022 32.5158C34.6929 32.157 35.2814 31.662 35.7497 31.0624L37.1455 29.2707V29.1665V28.979L43.1664 34.979C43.4269 35.2569 43.5753 35.6214 43.583 36.0023C43.5907 36.3831 43.4571 36.7533 43.208 37.0415Z" fill="#1D1128"/>
</svg>
